<svg xmlns="http://www.w3.org/2000/svg" viewBox="0 0 512 512" role="img" aria-label="Shagari Garden Management">
    <defs>
        <linearGradient id="bg" x1="0" y1="0" x2="1" y2="1">
            <stop offset="0%" stop-color="#4f7d3d" />
            <stop offset="100%" stop-color="#2f4f2f" />
        </linearGradient>
    </defs>
    <rect x="24" y="24" width="464" height="464" rx="96" fill="url(#bg)" />
    <path
        d="M256 114c-64 44-101 98-101 151 0 60 45 104 101 124 56-20 101-64 101-124 0-53-37-107-101-151zm0 49c39 34 62 70 62 102 0 39-27 69-62 84-35-15-62-45-62-84 0-32 23-68 62-102z"
        fill="#f7fff6" />
    <circle cx="256" cy="286" r="17" fill="#f7fff6" />
</svg>